# Blender 3.4.1
# www.blender.org
mtllib lasso.mtl
o Cylinder
v 0.000000 0.020000 0.000000
v 0.000000 0.020000 -1.000000
v -0.014142 0.014142 0.000000
v -0.014142 0.014142 -1.000000
v -0.020000 0.000000 0.000000
v -0.020000 0.000000 -1.000000
v -0.014142 -0.014142 -0.000000
v -0.014142 -0.014142 -1.000000
v 0.000000 -0.020000 -0.000000
v 0.000000 -0.020000 -1.000000
v 0.014142 -0.014142 -0.000000
v 0.014142 -0.014142 -1.000000
v 0.020000 0.000000 0.000000
v 0.020000 0.000000 -1.000000
v 0.014142 0.014142 0.000000
v 0.014142 0.014142 -1.000000
vn -0.3827 0.9239 -0.0000
vn -0.9239 0.3827 -0.0000
vn -0.9239 -0.3827 -0.0000
vn -0.3827 -0.9239 -0.0000
vn 0.3827 -0.9239 -0.0000
vn 0.9239 -0.3827 -0.0000
vn -0.0000 -0.0000 -1.0000
vn 0.9239 0.3827 -0.0000
vn 0.3827 0.9239 -0.0000
vn -0.0000 -0.0000 1.0000
vt 0.083318 0.999281
vt 0.055785 0.000719
vt 0.147752 0.026813
vt 0.083318 0.000720
vt 0.147752 0.065154
vt 0.055785 0.999281
vt 0.098603 0.999281
vt 0.136944 0.037621
vt 0.098603 0.000720
vt 0.147752 0.049869
vt 0.109412 0.999281
vt 0.000719 0.999281
vt 0.121659 0.037621
vt 0.109412 0.000720
vt 0.000719 0.000720
vt 0.136944 0.039060
vt 0.016005 0.999281
vt 0.110851 0.026813
vt 0.016005 0.000720
vt 0.121659 0.039060
vt 0.026813 0.999281
vt 0.054346 0.000719
vt 0.110851 0.011528
vt 0.026813 0.000720
vt 0.054346 0.999281
vt 0.110851 0.049868
vt 0.039061 0.000719
vt 0.121659 0.000719
vt 0.039061 0.999281
vt 0.110851 0.065154
vt 0.028252 0.000719
vt 0.081879 0.000719
vt 0.136944 0.000719
vt 0.028252 0.999281
vt 0.121659 0.075962
vt 0.081879 0.999281
vt 0.066594 0.000719
vt 0.147752 0.011528
vt 0.136944 0.075962
vt 0.066594 0.999281
s 0
usemtl Material.001
f 1/1/1 2/4/1 4/9/1 3/7/1
f 3/7/2 4/9/2 6/14/2 5/11/2
f 5/12/3 6/15/3 8/19/3 7/17/3
f 7/17/4 8/19/4 10/24/4 9/21/4
f 9/22/5 10/25/5 12/29/5 11/27/5
f 11/27/6 12/29/6 14/34/6 13/31/6
f 4/10/7 2/5/7 16/39/7 14/35/7 12/30/7 10/26/7 8/20/7 6/16/7
f 13/32/8 14/36/8 16/40/8 15/37/8
f 15/37/9 16/40/9 2/6/9 1/2/9
f 1/3/10 3/8/10 5/13/10 7/18/10 9/23/10 11/28/10 13/33/10 15/38/10
