# Blender 3.5.1
# www.blender.org
mtllib arrow.mtl
o Cone
v 0.000000 -0.007499 -0.008070
v 0.005302 -0.005302 -0.008070
v 0.007499 0.000000 -0.008070
v 0.005302 0.005302 -0.008070
v 0.000000 0.007499 -0.008070
v -0.005302 0.005302 -0.008070
v -0.007499 0.000000 -0.008070
v -0.005302 -0.005302 -0.008070
v 0.000000 0.000000 -0.038070
v 0.000000 -0.015000 -0.008070
v 0.010607 -0.010607 -0.008070
v 0.015000 0.000000 -0.008070
v 0.010607 0.010607 -0.008070
v 0.000000 0.015000 -0.008070
v -0.010607 0.010607 -0.008070
v -0.015000 0.000000 -0.008070
v -0.010607 -0.010607 -0.008070
v 0.000000 -0.007499 0.026281
v 0.005302 -0.005302 0.026281
v 0.007499 0.000000 0.026281
v 0.005302 0.005302 0.026281
v 0.000000 0.007499 0.026281
v -0.005302 0.005302 0.026281
v -0.007499 0.000000 0.026281
v -0.005302 -0.005302 0.026281
vn 0.3474 -0.8387 -0.4194
vn 0.8387 -0.3474 -0.4194
vn 0.8387 0.3474 -0.4194
vn 0.3474 0.8387 -0.4194
vn -0.3474 0.8387 -0.4194
vn -0.8387 0.3474 -0.4194
vn -0.9240 -0.3825 -0.0000
vn -0.8387 -0.3474 -0.4194
vn -0.3474 -0.8387 -0.4194
vn -0.0000 -0.0000 1.0000
vn -0.3825 0.9240 -0.0000
vn 0.9240 0.3825 -0.0000
vn 0.3825 -0.9240 -0.0000
vn -0.3825 -0.9240 -0.0000
vn -0.9240 0.3825 -0.0000
vn 0.3825 0.9240 -0.0000
vn 0.9240 -0.3825 -0.0000
vt 0.750000 0.381034
vt 0.842655 0.342655
vt 0.881034 0.250000
vt 0.842655 0.157345
vt 0.750000 0.118966
vt 0.657345 0.157345
vt 0.618966 0.250000
vt 0.657345 0.342655
vt 0.250000 0.250000
vt 0.250000 0.490000
vt 0.750000 0.490000
vt 0.419706 0.419706
vt 0.919706 0.419706
vt 0.490000 0.250000
vt 0.990000 0.250000
vt 0.419706 0.080294
vt 0.919706 0.080294
vt 0.250000 0.010000
vt 0.750000 0.010000
vt 0.080294 0.080294
vt 0.580294 0.080294
vt 0.010000 0.250000
vt 0.510000 0.250000
vt 0.080294 0.419706
vt 0.580294 0.419706
vt 0.750000 0.381034
vt 0.842655 0.342655
vt 0.881034 0.250000
vt 0.842655 0.157345
vt 0.750000 0.118966
vt 0.657345 0.157345
vt 0.618966 0.250000
vt 0.657345 0.342655
s 0
usemtl Material.002
f 10/10/1 9/9/1 11/12/1
f 11/12/2 9/9/2 12/14/2
f 12/14/3 9/9/3 13/16/3
f 13/16/4 9/9/4 14/18/4
f 14/18/5 9/9/5 15/20/5
f 15/20/6 9/9/6 16/22/6
f 7/7/7 8/8/7 25/33/7 24/32/7
f 16/22/8 9/9/8 17/24/8
f 17/24/9 9/9/9 10/10/9
f 2/2/10 1/1/10 10/11/10 11/13/10
f 3/3/10 2/2/10 11/13/10 12/15/10
f 4/4/10 3/3/10 12/15/10 13/17/10
f 5/5/10 4/4/10 13/17/10 14/19/10
f 6/6/10 5/5/10 14/19/10 15/21/10
f 7/7/10 6/6/10 15/21/10 16/23/10
f 8/8/10 7/7/10 16/23/10 17/25/10
f 1/1/10 8/8/10 17/25/10 10/11/10
f 18/26/10 19/27/10 20/28/10 21/29/10 22/30/10 23/31/10 24/32/10 25/33/10
f 5/5/11 6/6/11 23/31/11 22/30/11
f 3/3/12 4/4/12 21/29/12 20/28/12
f 1/1/13 2/2/13 19/27/13 18/26/13
f 8/8/14 1/1/14 18/26/14 25/33/14
f 6/6/15 7/7/15 24/32/15 23/31/15
f 4/4/16 5/5/16 22/30/16 21/29/16
f 2/2/17 3/3/17 20/28/17 19/27/17
