# Blender 3.4.1
# www.blender.org
mtllib debug_axis.mtl
o Cube
v -0.050000 -0.050000 -0.050000
v -0.050000 -0.050000 0.050000
v -0.050000 0.050000 -0.050000
v -0.050000 0.050000 0.050000
v 0.050000 -0.050000 -0.050000
v 0.050000 -0.050000 0.050000
v 0.050000 0.050000 -0.050000
v 0.050000 0.050000 0.050000
v 1.050000 0.050000 0.050000
v 1.050000 0.050000 -0.050000
v 1.050000 -0.050000 -0.050000
v 1.050000 -0.050000 0.050000
v -0.050000 1.050000 0.050000
v -0.050000 1.050000 -0.050000
v 0.050000 1.050000 -0.050000
v 0.050000 1.050000 0.050000
v -0.050000 -0.050000 1.050000
v -0.050000 0.050000 1.050000
v 0.050000 0.050000 1.050000
v 0.050000 -0.050000 1.050000
vn -1.0000 -0.0000 -0.0000
vn -0.0000 -0.0000 1.0000
vn -0.0000 -1.0000 -0.0000
vn -0.0000 -0.0000 -1.0000
vn 1.0000 -0.0000 -0.0000
vn -0.0000 1.0000 -0.0000
vt 0.997526 0.002474
vt 0.002474 0.997526
vt 0.002474 0.497526
vt 0.997526 0.047479
vt 0.047479 0.997526
vt 0.952521 0.002474
vt 0.002474 0.452521
vt 0.547479 0.952521
vt 0.952521 0.047479
vt 0.647385 0.502474
vt 0.002474 0.952521
vt 0.047479 0.497526
vt 0.652333 0.952521
vt 0.552427 0.502474
vt 0.047479 0.952521
vt 0.797243 0.952521
vt 0.747290 0.502474
vt 0.047479 0.452521
vt 0.697337 0.952521
vt 0.597432 0.502474
vt 0.752239 0.952521
vt 0.702286 0.502474
vt 0.502474 0.952521
vt 0.602380 0.502474
vt 0.697337 0.502474
vt 0.847196 0.647385
vt 0.752239 0.502474
vt 0.847196 0.602380
vt 0.797243 0.502474
vt 0.497526 0.452521
vt 0.802191 0.602380
vt 0.002474 0.502474
vt 0.497526 0.497526
vt 0.652333 0.502474
vt 0.802191 0.647385
vt 0.047479 0.502474
vt 0.502474 0.047479
vt 0.847196 0.597432
vt 0.547479 0.502474
vt 0.502474 0.002474
vt 0.847196 0.552427
vt 0.002474 0.002474
vt 0.802191 0.552427
vt 0.747290 0.952521
vt 0.047479 0.002474
vt 0.802191 0.597432
vt 0.702286 0.952521
vt 0.502474 0.502474
vt 0.847196 0.547479
vt 0.997526 0.497526
vt 0.497526 0.997526
vt 0.847196 0.502474
vt 0.952521 0.497526
vt 0.647385 0.952521
vt 0.597432 0.952521
vt 0.802191 0.502474
vt 0.602380 0.952521
vt 0.552427 0.952521
vt 0.802191 0.547479
vt 0.497526 0.952521
s 0
usemtl Material.004
f 1/1/1 2/4/1 4/9/1 3/6/1
f 3/6/1 4/9/1 13/37/1 14/40/1
f 8/19/2 6/13/2 12/34/2 9/25/2
f 5/11/3 6/15/3 2/5/3 1/2/3
f 3/7/4 7/18/4 5/12/4 1/3/4
f 6/14/5 8/20/5 19/55/5 20/58/5
f 10/28/5 9/26/5 12/35/5 11/31/5
f 7/16/6 8/21/6 9/27/6 10/29/6
f 6/15/3 5/11/3 11/32/3 12/36/3
f 5/12/4 7/18/4 10/30/4 11/33/4
f 14/41/6 13/38/6 16/46/6 15/43/6
f 8/22/5 7/17/5 15/44/5 16/47/5
f 7/18/4 3/7/4 14/42/4 15/45/4
f 4/8/2 8/23/2 16/48/2 13/39/2
f 19/56/2 18/52/2 17/49/2 20/59/2
f 4/9/1 2/4/1 17/50/1 18/53/1
f 2/5/3 6/15/3 20/60/3 17/51/3
f 8/24/6 4/10/6 18/54/6 19/57/6
